<svg width="1029" height="786" viewBox="0 0 1029 786" fill="none" xmlns="http://www.w3.org/2000/svg">
<g clip-path="url(#clip0)">
<path opacity="0.1" d="M1060.04 458.23C1020.89 511.95 1033.81 588.63 1056.44 649.72C1064.02 670.17 1072.63 691.8 1068.7 714.05C1063.9 741.25 1041.34 761.63 1017.89 772.73C975.14 792.96 924.64 789.73 886.4 764.24C853.4 742.24 830.17 705.68 796.53 684.73C740.23 649.68 667.14 665.34 604.48 692.1C560.15 711.03 511.59 735.41 468.39 717.93C437.99 705.63 417.52 674.32 406.75 640.85C401.55 624.69 397.91 607.15 387.55 594.5C381.39 586.98 373.25 581.74 364.88 577.36C288.49 537.36 190.23 562.36 116.17 517.73C66.17 487.59 35.05 429.1 22.12 367.61C9.19 306.12 12.39 241.21 17.54 177.41C21.2 132.07 26.99 83.62 54.25 47.99C83.08 10.31 131.4 -4.66999 174.61 1.24001C217.82 7.15001 256.55 31.18 290.45 59.78C332.82 95.53 371.83 140.4 424.56 153.96C460.47 163.2 498.62 156.66 535.95 153.77C598.35 148.95 660.53 154.5 722.33 160.77C781.49 166.77 841.06 173.47 897.09 193.14C936.74 207.06 968.17 233.37 1005.5 251.35C1029.83 263.07 1056.6 265.79 1079.5 280.93C1107.76 299.58 1133.3 332.62 1125.01 372.27C1117.18 409.95 1080.82 429.72 1060.04 458.23Z" fill="#2D527C"/>
<path d="M576.5 158.91H390.26C384.953 158.91 380.65 163.213 380.65 168.52V287.34C380.65 292.647 384.953 296.95 390.26 296.95H576.5C581.807 296.95 586.11 292.647 586.11 287.34V168.52C586.11 163.213 581.807 158.91 576.5 158.91Z" fill="#474059"/>
<path d="M581.35 175.03H384.97V287.8H581.35V175.03Z" fill="white"/>
<path d="M483.16 171.07C484.115 171.07 484.89 170.233 484.89 169.2C484.89 168.167 484.115 167.33 483.16 167.33C482.205 167.33 481.43 168.167 481.43 169.2C481.43 170.233 482.205 171.07 483.16 171.07Z" fill="white"/>
<path d="M500.84 291.95H464.84V329.95H500.84V291.95Z" fill="#474059"/>
<path d="M461.84 326.95H505.84C507.431 326.95 508.957 327.582 510.083 328.707C511.208 329.833 511.84 331.359 511.84 332.95H455.84C455.84 331.359 456.472 329.833 457.597 328.707C458.723 327.582 460.249 326.95 461.84 326.95Z" fill="#474059"/>
<path d="M380.84 358.95H232.84V409.95H380.84V358.95Z" fill="#C0BCCF"/>
<path d="M868.84 333.95H836.84V611.95H868.84V333.95Z" fill="#C0BCCF"/>
<path opacity="0.1" d="M380.84 358.95H232.84V361.95H380.84V358.95Z" fill="black"/>
<path opacity="0.1" d="M868.84 333.95H836.84V361.95H868.84V333.95Z" fill="black"/>
<path d="M380.84 407.95H232.84V458.95H380.84V407.95Z" fill="#C0BCCF"/>
<path d="M306.84 441.95C311.811 441.95 315.84 437.921 315.84 432.95C315.84 427.979 311.811 423.95 306.84 423.95C301.869 423.95 297.84 427.979 297.84 432.95C297.84 437.921 301.869 441.95 306.84 441.95Z" fill="#2D527C"/>
<path d="M306.84 392.95C311.811 392.95 315.84 388.921 315.84 383.95C315.84 378.979 311.811 374.95 306.84 374.95C301.869 374.95 297.84 378.979 297.84 383.95C297.84 388.921 301.869 392.95 306.84 392.95Z" fill="#2D527C"/>
<path d="M380.84 458.95H232.84V509.95H380.84V458.95Z" fill="#C0BCCF"/>
<path d="M306.84 491.95C311.811 491.95 315.84 487.921 315.84 482.95C315.84 477.979 311.811 473.95 306.84 473.95C301.869 473.95 297.84 477.979 297.84 482.95C297.84 487.921 301.869 491.95 306.84 491.95Z" fill="#2D527C"/>
<path d="M380.84 509.95H232.84V560.95H380.84V509.95Z" fill="#C0BCCF"/>
<path d="M306.84 542.95C311.811 542.95 315.84 538.921 315.84 533.95C315.84 528.979 311.811 524.95 306.84 524.95C301.869 524.95 297.84 528.979 297.84 533.95C297.84 538.921 301.869 542.95 306.84 542.95Z" fill="#2D527C"/>
<path d="M380.84 560.95H232.84V611.95H380.84V560.95Z" fill="#C0BCCF"/>
<path d="M306.84 593.95C311.811 593.95 315.84 589.921 315.84 584.95C315.84 579.979 311.811 575.95 306.84 575.95C301.869 575.95 297.84 579.979 297.84 584.95C297.84 589.921 301.869 593.95 306.84 593.95Z" fill="#2D527C"/>
<path opacity="0.1" d="M380.84 455.95H232.84V459.95H380.84V455.95Z" fill="black"/>
<path opacity="0.1" d="M380.84 405.95H232.84V409.95H380.84V405.95Z" fill="black"/>
<path opacity="0.1" d="M380.84 506.95H232.84V510.95H380.84V506.95Z" fill="black"/>
<path opacity="0.1" d="M380.84 557.95H232.84V561.95H380.84V557.95Z" fill="black"/>
<path d="M151.61 575.24C151.61 575.24 148.31 477.48 95.42 422.24C73.22 399.06 58.64 369.62 54.78 337.76C52.9756 322.64 52.5605 307.386 53.54 292.19" stroke="#535461" stroke-width="2" stroke-miterlimit="10"/>
<path d="M20.41 257.21C24.03 268.13 54.29 293.21 54.29 293.21C54.29 293.21 63.56 255 59.94 244.09C58.2015 238.848 54.4518 234.511 49.5159 232.034C44.5799 229.557 38.862 229.142 33.62 230.88C28.378 232.618 24.0413 236.368 21.5639 241.304C19.0866 246.24 18.6715 251.958 20.41 257.2V257.21Z" fill="#2D527C"/>
<path d="M7.79 328.5C16.79 335.7 55.79 340.32 55.79 340.32C55.79 340.32 42.79 303.21 33.79 296.02C29.4816 292.564 23.9768 290.962 18.4867 291.564C12.9965 292.167 7.97077 294.927 4.515 299.235C1.05923 303.543 -0.543481 309.048 0.0594484 314.538C0.662378 320.029 3.42156 325.054 7.73 328.51L7.79 328.5Z" fill="#2D527C"/>
<path d="M43.49 431.35C54.87 433.03 90.9 417.35 90.9 417.35C90.9 417.35 60.95 391.84 49.58 390.15C44.1166 389.342 38.556 390.738 34.1218 394.03C29.6875 397.323 26.7426 402.242 25.935 407.705C25.1274 413.168 26.5233 418.729 29.8155 423.163C33.1077 427.598 38.0265 430.542 43.49 431.35Z" fill="#2D527C"/>
<path d="M88.01 503.09C98.94 506.67 137.11 497.27 137.11 497.27C137.11 497.27 111.9 467.1 100.97 463.52C95.7227 461.796 90.0055 462.227 85.0761 464.719C80.1467 467.21 76.4089 471.558 74.685 476.805C72.9611 482.052 73.3923 487.77 75.8837 492.699C78.3751 497.628 82.7227 501.366 87.97 503.09H88.01Z" fill="#2D527C"/>
<path d="M98.01 328.67C92.7 338.87 58.84 358.85 58.84 358.85C58.84 358.85 55.76 319.66 61.07 309.45C62.332 307.024 64.0594 304.871 66.1535 303.113C68.2477 301.355 70.6676 300.027 73.275 299.204C75.8825 298.382 78.6265 298.081 81.3503 298.318C84.0742 298.556 86.7245 299.328 89.15 300.59C91.5755 301.852 93.7287 303.579 95.4866 305.674C97.2446 307.768 98.5728 310.188 99.3956 312.795C100.218 315.403 100.519 318.146 100.282 320.87C100.044 323.594 99.272 326.244 98.01 328.67Z" fill="#2D527C"/>
<path d="M149.02 413.23C140.9 421.38 102.62 430.3 102.62 430.3C102.62 430.3 111.41 391.98 119.52 383.83C123.417 379.918 128.709 377.715 134.231 377.704C139.753 377.694 145.053 379.878 148.965 383.775C152.877 387.672 155.08 392.964 155.091 398.486C155.101 404.008 152.917 409.308 149.02 413.22V413.23Z" fill="#2D527C"/>
<path d="M187.32 502.22C180.7 511.62 144.47 526.89 144.47 526.89C144.47 526.89 146.65 487.64 153.28 478.23C154.814 475.897 156.801 473.897 159.124 472.347C161.447 470.798 164.058 469.732 166.801 469.212C169.544 468.693 172.364 468.73 175.092 469.322C177.82 469.914 180.402 471.049 182.683 472.659C184.964 474.269 186.898 476.322 188.369 478.694C189.841 481.067 190.82 483.711 191.249 486.47C191.678 489.229 191.548 492.046 190.866 494.753C190.184 497.461 188.965 500.003 187.28 502.23L187.32 502.22Z" fill="#2D527C"/>
<path d="M139.99 534.78C139.99 534.78 169.99 491.14 164.73 450.08C162.412 432.872 165.739 415.377 174.21 400.22C178.284 393.046 183.007 386.261 188.32 379.95" stroke="#535461" stroke-width="2" stroke-miterlimit="10"/>
<path d="M185.16 354.09C183.23 360.01 188.33 380.67 188.33 380.67C188.33 380.67 204.66 367.01 206.59 361.1C207.05 359.693 207.228 358.209 207.114 356.733C207 355.257 206.597 353.818 205.927 352.498C205.257 351.178 204.333 350.003 203.209 349.04C202.085 348.077 200.782 347.345 199.375 346.885C196.533 345.957 193.439 346.195 190.773 347.548C188.107 348.902 186.088 351.258 185.16 354.1V354.09Z" fill="#2D527C"/>
<path d="M156.73 381.07C158.32 387.07 173.84 401.66 173.84 401.66C173.84 401.66 180.12 381.32 178.53 375.3C178.151 373.869 177.494 372.526 176.596 371.348C175.698 370.171 174.578 369.182 173.297 368.438C172.017 367.693 170.603 367.208 169.136 367.011C167.668 366.813 166.176 366.906 164.745 367.285C163.314 367.664 161.971 368.321 160.793 369.219C159.616 370.117 158.627 371.237 157.883 372.518C157.138 373.798 156.653 375.212 156.456 376.679C156.258 378.147 156.351 379.639 156.73 381.07Z" fill="#2D527C"/>
<path d="M139.19 437.34C143.6 441.73 164.35 446.48 164.35 446.48C164.35 446.48 159.51 425.75 155.09 421.36C152.968 419.252 150.096 418.072 147.105 418.082C144.113 418.091 141.248 419.288 139.14 421.41C137.032 423.532 135.852 426.404 135.862 429.395C135.871 432.387 137.068 435.252 139.19 437.36V437.34Z" fill="#2D527C"/>
<path d="M135.51 482.95C139.12 488.02 158.77 496.21 158.77 496.21C158.77 496.21 157.5 474.96 153.89 469.89C152.158 467.453 149.529 465.803 146.581 465.304C143.633 464.805 140.607 465.498 138.17 467.23C135.733 468.962 134.083 471.591 133.584 474.539C133.085 477.487 133.778 480.513 135.51 482.95Z" fill="#2D527C"/>
<path d="M195.96 410.17C190.37 412.91 169.2 410.71 169.2 410.71C169.2 410.71 180.46 392.65 186.06 389.95C187.39 389.299 188.834 388.917 190.312 388.825C191.789 388.732 193.27 388.932 194.671 389.412C196.071 389.892 197.363 390.643 198.473 391.623C199.583 392.602 200.489 393.79 201.14 395.12C201.791 396.45 202.173 397.894 202.265 399.372C202.358 400.849 202.158 402.33 201.678 403.731C201.198 405.131 200.447 406.423 199.467 407.533C198.488 408.643 197.3 409.549 195.97 410.2L195.96 410.17Z" fill="#2D527C"/>
<path d="M190.98 463.4C184.82 464.33 165.32 455.95 165.32 455.95C165.32 455.95 181.47 442.09 187.63 441.15C190.586 440.7 193.599 441.444 196.007 443.216C198.415 444.988 200.02 447.644 200.47 450.6C200.92 453.556 200.176 456.569 198.404 458.977C196.632 461.385 193.976 462.99 191.02 463.44L190.98 463.4Z" fill="#2D527C"/>
<path d="M179.03 514.47C173.12 516.47 152.43 511.47 152.43 511.47C152.43 511.47 166.01 495.08 171.92 493.11C174.758 492.167 177.854 492.39 180.527 493.73C183.201 495.07 185.232 497.417 186.175 500.255C187.118 503.093 186.895 506.189 185.555 508.862C184.215 511.536 181.868 513.567 179.03 514.51V514.47Z" fill="#2D527C"/>
<path opacity="0.5" d="M185.16 354.09C183.23 360.01 188.33 380.67 188.33 380.67C188.33 380.67 204.66 367.01 206.59 361.1C207.05 359.693 207.228 358.209 207.114 356.733C207 355.257 206.597 353.818 205.927 352.498C205.257 351.178 204.333 350.003 203.209 349.04C202.085 348.077 200.782 347.345 199.375 346.885C196.533 345.957 193.439 346.195 190.773 347.548C188.107 348.902 186.088 351.258 185.16 354.1V354.09Z" fill="white"/>
<path opacity="0.5" d="M156.73 381.07C158.32 387.07 173.84 401.66 173.84 401.66C173.84 401.66 180.12 381.32 178.53 375.3C178.151 373.869 177.494 372.526 176.596 371.348C175.698 370.171 174.578 369.182 173.297 368.438C172.017 367.693 170.603 367.208 169.136 367.011C167.668 366.813 166.176 366.906 164.745 367.285C163.314 367.664 161.971 368.321 160.793 369.219C159.616 370.117 158.627 371.237 157.883 372.518C157.138 373.798 156.653 375.212 156.456 376.679C156.258 378.147 156.351 379.639 156.73 381.07Z" fill="white"/>
<path opacity="0.5" d="M139.19 437.34C143.6 441.73 164.35 446.48 164.35 446.48C164.35 446.48 159.51 425.75 155.09 421.36C152.968 419.252 150.096 418.072 147.105 418.082C144.113 418.091 141.248 419.288 139.14 421.41C137.032 423.532 135.852 426.404 135.862 429.395C135.871 432.387 137.068 435.252 139.19 437.36V437.34Z" fill="white"/>
<path opacity="0.5" d="M135.51 482.95C139.12 488.02 158.77 496.21 158.77 496.21C158.77 496.21 157.5 474.96 153.89 469.89C152.158 467.453 149.529 465.803 146.581 465.304C143.633 464.805 140.607 465.498 138.17 467.23C135.733 468.962 134.083 471.591 133.584 474.539C133.085 477.487 133.778 480.513 135.51 482.95Z" fill="white"/>
<path opacity="0.5" d="M195.96 410.17C190.37 412.91 169.2 410.71 169.2 410.71C169.2 410.71 180.46 392.65 186.06 389.95C187.39 389.299 188.834 388.917 190.312 388.825C191.789 388.732 193.27 388.932 194.671 389.412C196.071 389.892 197.363 390.643 198.473 391.623C199.583 392.602 200.489 393.79 201.14 395.12C201.791 396.45 202.173 397.894 202.265 399.372C202.358 400.849 202.158 402.33 201.678 403.731C201.198 405.131 200.447 406.423 199.467 407.533C198.488 408.643 197.3 409.549 195.97 410.2L195.96 410.17Z" fill="white"/>
<path opacity="0.5" d="M190.98 463.4C184.82 464.33 165.32 455.95 165.32 455.95C165.32 455.95 181.47 442.09 187.63 441.15C190.586 440.7 193.599 441.444 196.007 443.216C198.415 444.988 200.02 447.644 200.47 450.6C200.92 453.556 200.176 456.569 198.404 458.977C196.632 461.385 193.976 462.99 191.02 463.44L190.98 463.4Z" fill="white"/>
<path opacity="0.5" d="M179.03 514.47C173.12 516.47 152.43 511.47 152.43 511.47C152.43 511.47 166.01 495.08 171.92 493.11C174.758 492.167 177.854 492.39 180.527 493.73C183.201 495.07 185.232 497.417 186.175 500.255C187.118 503.093 186.895 506.189 185.555 508.862C184.215 511.536 181.868 513.567 179.03 514.51V514.47Z" fill="white"/>
<path d="M195.5 653.11H110.17L88.84 522.98H216.84L195.5 653.11Z" fill="#474059"/>
<path opacity="0.1" d="M200.5 522.98L180.57 644.58H108.77L110.17 653.11H195.5L216.84 522.98H200.5Z" fill="black"/>
<path d="M872.84 329.95H229.84V359.95H872.84V329.95Z" fill="#C0BCCF"/>
<path d="M481.84 182.83H389.84V280.06H481.84V182.83Z" fill="#E8EAF1"/>
<path d="M479.84 184.95H391.84V277.95H479.84V184.95Z" fill="white"/>
<path d="M470.32 252.73C471.55 242.99 469.09 242.38 469.09 242.38L465.56 240.69C465.617 240.119 465.641 239.544 465.63 238.97C465.658 238.494 465.658 238.016 465.63 237.54C465.28 233.7 463 230.35 461.38 226.85C459.892 223.618 458.953 220.161 458.6 216.62C458.17 212.25 458.6 207.71 457.1 203.62C455.704 200.331 453.573 197.407 450.87 195.07C448.005 192.187 444.609 189.884 440.87 188.29C437.081 186.697 432.834 186.576 428.96 187.95C425.56 189.29 422.96 191.95 420.38 194.58C418.521 196.334 416.891 198.316 415.53 200.48C414.103 203.27 413.179 206.289 412.8 209.4C411.987 214.338 411.427 219.315 411.12 224.31C410.85 228.47 410.44 233.2 407.12 235.76C405.49 237.01 403.21 237.71 402.46 239.6C402.253 240.169 402.171 240.776 402.22 241.38C402.2 241.885 402.233 242.392 402.32 242.89C402.32 243.18 402.43 243.47 402.49 243.76C401.535 246.306 400.734 248.908 400.09 251.55C397.829 260.558 396.182 269.709 395.16 278.94H454.48C455.041 279.008 455.609 279.008 456.17 278.94H471.6L470.32 252.73Z" fill="url(#paint0_linear)"/>
<path d="M453.05 212.34H419V238.03H453.05V212.34Z" fill="#B96B6B"/>
<path opacity="0.1" d="M453.05 212.34H419V238.03H453.05V212.34Z" fill="black"/>
<path d="M454.25 239.22L441.11 257.74L427.32 256.55C427.32 256.55 409.4 257.74 421.32 244C427.06 237.4 428.94 231.9 429.32 228C429.655 225.741 429.361 223.433 428.47 221.33L443.41 219.54C442.739 221.551 442.655 223.713 443.17 225.77C445.11 233.51 454.25 239.22 454.25 239.22Z" fill="#FFB9B9"/>
<path opacity="0.1" d="M443.25 225.74C441.3 227.213 439.019 228.185 436.605 228.57C434.192 228.955 431.722 228.742 429.41 227.95C429.745 225.691 429.451 223.383 428.56 221.28L443.5 219.49C442.821 221.507 442.735 223.676 443.25 225.74Z" fill="black"/>
<path d="M434.23 228.17C442.481 228.17 449.17 221.481 449.17 213.23C449.17 204.979 442.481 198.29 434.23 198.29C425.979 198.29 419.29 204.979 419.29 213.23C419.29 221.481 425.979 228.17 434.23 228.17Z" fill="#FFB9B9"/>
<path opacity="0.1" d="M435.13 252.95C435.13 252.95 440.51 246.38 440.51 241C441.246 239.574 442.26 238.308 443.491 237.278C444.722 236.248 446.146 235.474 447.68 235C453.06 233.21 452.46 235 452.46 235L456.04 249.34L454.85 275.03L455.45 278.03H411.23L414.23 266.08L413.62 255.95L416.01 240.42L423.18 236.24L428.56 243.41L435.13 252.95Z" fill="black"/>
<path d="M435.13 253.56C435.13 253.56 440.51 246.99 440.51 241.61C441.246 240.184 442.26 238.918 443.491 237.888C444.722 236.858 446.146 236.084 447.68 235.61C453.06 233.82 452.46 235.61 452.46 235.61L456.04 249.95L454.85 275.64L455.45 278.64H411.23L414.23 266.69L413.63 256.53L416.02 241L423.19 236.82L428.57 243.99L435.13 253.56Z" fill="#FEC5D9"/>
<path opacity="0.1" d="M426.77 235.04L408.25 238.04C408.25 238.04 405.25 237.44 401.68 251.78C399.488 260.623 397.891 269.603 396.9 278.66H420C420 278.66 421.39 254.76 425 252.97L430 245.24C430 245.24 422 244.61 423.18 240.43C424.36 236.25 426.77 235.04 426.77 235.04Z" fill="black"/>
<path d="M426.17 235.04L407.65 238.04C407.65 238.04 404.65 237.44 401.08 251.78C398.895 260.62 397.305 269.597 396.32 278.65H419.42C419.42 278.65 420.81 254.75 424.42 252.96L429.42 245.23C429.42 245.23 421.42 244.6 422.6 240.42C423.78 236.24 426.17 235.04 426.17 235.04Z" fill="#747B9C"/>
<path opacity="0.1" d="M447.68 233.25L467.39 242.81C467.39 242.81 469.78 243.41 468.58 252.97L469.77 278.66H448.57C450.182 270.598 450.486 262.329 449.47 254.17C448.426 247.242 447.828 240.254 447.68 233.25Z" fill="black"/>
<path d="M448.32 233.25L468.03 242.81C468.03 242.81 470.42 243.41 469.22 252.97L470.41 278.66H449.17C450.782 270.598 451.086 262.329 450.07 254.17C449.04 247.241 448.455 240.254 448.32 233.25Z" fill="#747B9C"/>
<path opacity="0.1" d="M429.32 206.71C429.06 209.13 427.4 211.12 426.02 213.13C424.64 215.14 423.44 217.62 424.21 219.93C424.51 220.83 425.1 221.63 425.31 222.56C425.67 224.16 424.86 225.81 425 227.44C425.19 229.68 427.09 231.34 428.14 233.32C430.36 237.51 428.66 242.7 426.26 246.78C423.86 250.86 420.72 254.73 419.93 259.4C419.2 263.72 420.6 268.09 422.11 272.2C422.506 272.995 422.625 273.899 422.45 274.77C421.99 276.15 420.26 276.56 418.8 276.66C417.205 276.759 415.605 276.759 414.01 276.66C413.406 276.67 412.808 276.544 412.26 276.29C411.16 275.69 410.83 274.29 410.42 273.13C410.01 271.97 409.11 270.65 407.86 270.78C407.04 270.87 406.4 271.57 405.59 271.71C405.215 271.744 404.838 271.688 404.49 271.545C404.141 271.402 403.833 271.177 403.59 270.89C402.1 269.28 402.46 266.68 403.44 264.72C404.42 262.76 405.92 261.05 406.57 258.96C408.18 253.76 404.15 248.61 403.3 243.23C403.113 242.353 403.161 241.442 403.44 240.59C404.17 238.73 406.38 238.04 407.96 236.82C411.19 234.31 411.59 229.66 411.85 225.58C412.125 220.68 412.646 215.797 413.41 210.95C413.775 207.902 414.669 204.941 416.05 202.2C417.366 200.08 418.946 198.134 420.75 196.41C423.21 193.85 425.75 191.23 429.07 189.91C432.821 188.56 436.943 188.678 440.61 190.24C444.252 191.824 447.55 194.103 450.32 196.95C452.931 199.255 454.983 202.124 456.32 205.34C457.79 209.39 457.32 213.85 457.77 218.14C458.114 221.598 459.023 224.976 460.46 228.14C462.03 231.58 464.24 234.87 464.58 238.64C464.85 241.64 463.87 244.64 463.37 247.59C462.49 252.76 463.02 258.05 463.54 263.26C463.614 264.522 463.877 265.766 464.32 266.95C465.19 268.61 466.403 270.066 467.88 271.22C468.046 271.337 468.187 271.485 468.295 271.657C468.404 271.828 468.477 272.02 468.51 272.22C468.499 272.392 468.451 272.559 468.37 272.711C468.289 272.862 468.176 272.995 468.04 273.1C466.23 274.71 463.1 273.52 461.14 274.95C460.593 275.427 460.094 275.956 459.65 276.53C458.817 277.435 457.751 278.094 456.57 278.435C455.388 278.776 454.135 278.787 452.948 278.465C451.76 278.143 450.684 277.501 449.837 276.61C448.989 275.719 448.402 274.612 448.14 273.41C447.63 271.07 448.39 268.67 448.68 266.29C449.58 258.78 445.74 251.64 442.68 244.73C441.24 241.5 439.93 238 440.46 234.5C440.89 231.69 442.46 229.22 443.61 226.62C445.92 221.43 446.61 215.35 444.61 210.02C443.112 205.956 440.073 202.647 436.15 200.81C434.73 200.17 432.71 199.29 431.22 200.15C428.77 201.55 429.52 204.47 429.32 206.71Z" fill="black"/>
<path d="M429.32 206.11C429.06 208.53 427.4 210.52 426.02 212.53C424.64 214.54 423.44 217.02 424.21 219.33C424.51 220.23 425.1 221.03 425.31 221.96C425.67 223.56 424.86 225.21 425 226.84C425.19 229.08 427.09 230.74 428.14 232.72C430.36 236.91 428.66 242.1 426.26 246.18C423.86 250.26 420.72 254.13 419.93 258.8C419.2 263.12 420.6 267.49 422.11 271.6C422.506 272.395 422.625 273.299 422.45 274.17C421.99 275.55 420.26 275.96 418.8 276.06C417.205 276.159 415.605 276.159 414.01 276.06C413.406 276.07 412.808 275.944 412.26 275.69C411.16 275.09 410.83 273.69 410.42 272.53C410.01 271.37 409.11 270.05 407.86 270.18C407.04 270.27 406.4 270.97 405.59 271.11C405.215 271.144 404.838 271.088 404.49 270.945C404.141 270.802 403.833 270.577 403.59 270.29C402.1 268.68 402.46 266.08 403.44 264.12C404.42 262.16 405.92 260.45 406.57 258.36C408.18 253.16 404.15 248.01 403.3 242.63C403.113 241.753 403.161 240.842 403.44 239.99C404.17 238.13 406.38 237.44 407.96 236.22C411.19 233.71 411.59 229.06 411.85 224.98C412.144 220.076 412.685 215.19 413.47 210.34C413.835 207.292 414.729 204.331 416.11 201.59C417.426 199.47 419.006 197.524 420.81 195.8C423.27 193.24 425.81 190.62 429.13 189.3C432.881 187.95 437.003 188.068 440.67 189.63C444.3 191.199 447.591 193.457 450.36 196.28C452.971 198.585 455.023 201.454 456.36 204.67C457.83 208.72 457.36 213.18 457.81 217.47C458.154 220.928 459.063 224.306 460.5 227.47C462.07 230.91 464.28 234.2 464.62 237.97C464.89 240.97 463.91 243.97 463.41 246.92C462.53 252.09 463.06 257.38 463.58 262.59C463.645 263.858 463.901 265.109 464.34 266.3C465.21 267.96 466.423 269.416 467.9 270.57C468.066 270.687 468.207 270.835 468.315 271.007C468.424 271.178 468.497 271.37 468.53 271.57C468.519 271.742 468.471 271.909 468.39 272.061C468.309 272.212 468.196 272.345 468.06 272.45C466.25 274.06 463.12 272.87 461.16 274.3C460.613 274.777 460.114 275.306 459.67 275.88C458.837 276.785 457.771 277.444 456.59 277.785C455.408 278.126 454.155 278.137 452.968 277.815C451.78 277.493 450.704 276.851 449.857 275.96C449.009 275.069 448.422 273.962 448.16 272.76C447.65 270.42 448.41 268.02 448.7 265.64C449.6 258.13 445.76 250.99 442.7 244.08C441.26 240.85 439.95 237.35 440.48 233.85C440.91 231.04 442.48 228.57 443.63 225.97C445.94 220.78 446.63 214.7 444.63 209.37C443.132 205.306 440.093 201.997 436.17 200.16C434.75 199.52 432.73 198.64 431.24 199.5C428.77 200.95 429.52 203.88 429.32 206.11Z" fill="#B96B6B"/>
<path d="M572.84 188.95H500.84V191.95H572.84V188.95Z" fill="#E8EAF1"/>
<path d="M572.84 196.95H500.84V199.95H572.84V196.95Z" fill="#E8EAF1"/>
<path d="M572.84 204.95H500.84V207.95H572.84V204.95Z" fill="#E8EAF1"/>
<path d="M572.84 212.95H500.84V215.95H572.84V212.95Z" fill="#E8EAF1"/>
<path d="M572.84 220.95H500.84V223.95H572.84V220.95Z" fill="#E8EAF1"/>
<path d="M572.84 228.95H500.84V231.95H572.84V228.95Z" fill="#E8EAF1"/>
<path d="M572.84 236.95H500.84V239.95H572.84V236.95Z" fill="#E8EAF1"/>
<path d="M572.84 244.95H500.84V247.95H572.84V244.95Z" fill="#E8EAF1"/>
<path d="M572.84 252.95H500.84V255.95H572.84V252.95Z" fill="#E8EAF1"/>
<path d="M572.84 260.95H500.84V263.95H572.84V260.95Z" fill="#E8EAF1"/>
<path d="M572.84 268.95H500.84V271.95H572.84V268.95Z" fill="#E8EAF1"/>
<path d="M756.19 425.78C762.088 411.957 763.576 396.65 760.45 381.95C756.8 364.394 754.417 346.598 753.32 328.7C752.18 311.55 749.68 300.44 746.95 293.24C746.95 293.24 748 269.9 732.19 257.73C716.38 245.56 679.48 226.28 679.48 226.28L683.17 211.21H683.02C684.131 210.856 685.196 210.369 686.19 209.76C687.243 209.102 688.201 208.305 689.04 207.39C695.28 201.93 695.37 191.91 698.33 183.93C700.61 177.79 704.88 172.53 707.94 166.71C713.51 156.11 714.81 143.1 709.63 132.32C704.45 121.54 692.18 113.79 679.93 115.18C675.972 115.78 672.094 116.823 668.37 118.29C659.5 121.41 652.5 112.58 643.63 115.71C639.18 117.28 622.57 118.98 618.97 123.55C618.146 124.088 617.542 124.904 617.27 125.85C616.33 130.29 624.46 139.18 630.49 146.28C625.698 152.099 623.076 159.402 623.07 166.94C623.07 167.11 623.07 167.28 623.07 167.45C623.07 167.62 623.07 167.79 623.07 167.96C623.08 172.332 623.966 176.658 625.675 180.682C627.384 184.706 629.881 188.347 633.02 191.39C632.51 195.85 631.75 200.87 630.66 206.01H629.93C629.93 206.01 625.71 224.27 612.01 224.27C608.35 224.27 603.35 224.05 598.01 223.74C581.872 222.924 565.71 224.786 550.18 229.25C544.84 230.74 538.96 230.87 534.04 227.32C522.28 218.83 509.62 197.21 507.89 194.2C509.21 185.43 509.03 169.37 490.82 166.45C469.47 163.03 470.64 187.77 482.92 203.51C482.616 204.294 482.414 205.114 482.32 205.95C481.27 219.14 493.92 243.49 497.08 246.53C500.24 249.57 500.32 268.84 522.42 273.95C544.52 279.06 560.42 281.05 561.42 306.42C562.42 331.79 583.56 358.16 573.02 387.59C566.69 405.25 568.34 414.5 570.67 419.07C570.48 419.67 570.3 420.26 570.1 420.87C567.7 428.16 564.72 435.48 561.42 439.87C560.66 440.87 559.92 441.95 559.21 443.07C550.63 448.63 541.67 454.85 538.21 458.64C530.83 466.76 533.99 499.22 538.21 512.41C542.43 525.6 568.78 605.75 568.78 605.75H569.78L570.1 607.75L571.16 614.39C570.815 614.203 570.481 613.996 570.16 613.77C569.955 613.627 569.722 613.53 569.476 613.487C569.23 613.444 568.978 613.455 568.736 613.52C568.495 613.585 568.271 613.702 568.08 613.862C567.889 614.023 567.735 614.224 567.63 614.45L562.48 625.95C562.48 625.95 541.4 616.84 540.32 638.15C540.32 639 540.32 639.81 540.32 640.59C540.27 651.92 546.51 656.14 551.86 657.66C556.774 658.978 561.422 661.137 565.6 664.04C570.67 667.68 578.39 671.4 587.17 669.38C588.945 668.983 590.763 668.815 592.58 668.88C596.37 668.99 602.78 667.88 602.58 659.42C602.621 658.754 602.621 658.086 602.58 657.42C602.58 657.42 598.13 640.29 597.94 632.42C597.918 631.619 598.061 630.823 598.36 630.08C599.11 628.64 599.36 625.92 599.29 623.01C599.29 620.468 599.16 617.928 598.9 615.4C598.87 615.162 598.768 614.938 598.607 614.76C598.447 614.581 598.235 614.456 598.002 614.4C597.768 614.345 597.523 614.362 597.299 614.449C597.076 614.537 596.884 614.691 596.75 614.89L596.58 615.12C595.9 612.87 595.11 610.24 594.37 607.76L593.76 605.76H595.18C595.18 605.76 586.73 555.95 589.89 551.95C591.96 549.3 588.62 517.59 586.06 495.95C611.74 497.58 652.67 493.04 680.67 491.64C686.021 491.381 691.246 489.925 695.96 487.38C693.43 507.9 688.73 548.91 691.09 551.94C694.25 556 685.82 605.71 685.82 605.71H687.09L686.63 607.23H686.79C686.01 609.86 685.16 612.69 684.43 615.1L684.26 614.87C684.126 614.671 683.934 614.517 683.711 614.429C683.487 614.342 683.242 614.325 683.008 614.38C682.775 614.436 682.563 614.561 682.403 614.74C682.242 614.918 682.14 615.142 682.11 615.38C681.85 617.908 681.719 620.448 681.72 622.99C681.72 625.9 681.91 628.62 682.65 630.06C682.949 630.803 683.092 631.599 683.07 632.4C682.88 640.32 678.43 657.4 678.43 657.4C678.389 658.066 678.389 658.734 678.43 659.4C678.22 667.9 684.63 668.98 688.43 668.86C690.247 668.795 692.065 668.963 693.84 669.36C702.62 671.36 710.34 667.65 715.41 664.02C719.588 661.117 724.236 658.958 729.15 657.64C734.5 656.12 740.74 651.9 740.69 640.57C740.69 639.79 740.69 638.98 740.69 638.13C739.58 616.84 718.5 625.95 718.5 625.95L713.32 614.41C713.215 614.184 713.061 613.983 712.87 613.822C712.679 613.662 712.455 613.545 712.214 613.48C711.972 613.415 711.72 613.404 711.474 613.447C711.228 613.49 710.995 613.587 710.79 613.73C710.469 613.956 710.135 614.163 709.79 614.35L711.18 605.68H712.18C712.18 605.68 738.53 525.53 742.75 512.34C746.97 499.15 750.13 466.68 742.75 458.57C739.26 454.73 730.13 448.41 721.46 442.8C728.872 447.249 735.984 452.18 742.75 457.56L756.19 425.78ZM710.67 435.95L707.32 433.95C706.624 432.748 705.773 431.642 704.79 430.66C703.861 429.757 702.998 428.788 702.21 427.76C700.15 421.53 692.54 395.76 702.69 382.47C710.06 372.79 710.62 354.09 710.04 341.75C715.04 366.26 722.04 400.75 722.72 407.83C723.55 416.67 714.49 430.58 710.67 435.95Z" fill="url(#paint1_linear)"/>
<path d="M707.32 598.45L703.32 624.45L679.32 619.45C679.32 619.45 684.32 602.45 685.32 598.45C686.32 594.45 686.32 598.45 686.32 598.45H707.32Z" fill="#D6E6F9"/>
<path d="M599.32 619.45L575.32 624.45L572.55 606.45L571.32 598.45H592.32C592.32 598.45 592.32 594.45 593.32 598.45C593.68 599.89 594.56 603.03 595.55 606.45C597.32 612.51 599.32 619.45 599.32 619.45Z" fill="#D6E6F9"/>
<path opacity="0.1" d="M595.57 606.45H572.57L571.34 598.45H592.34C592.34 598.45 592.34 594.45 593.34 598.45C593.7 599.89 594.58 603.03 595.57 606.45Z" fill="black"/>
<path opacity="0.1" d="M683.11 605.95H706.11L707.34 597.95H686.32C686.32 597.95 686.32 593.95 685.32 597.95C684.98 599.39 684.1 602.53 683.11 605.95Z" fill="black"/>
<path d="M730.67 283.45C730.67 283.45 743.67 284.45 746.67 331.45C747.724 349.086 749.999 366.628 753.48 383.95C756.451 398.415 755.059 413.437 749.48 427.11L736.67 458.45C736.67 458.45 712.67 438.45 704.67 439.45C704.67 439.45 718.67 420.45 717.67 409.45C716.67 398.45 700.67 319.45 700.67 319.45L730.67 283.45Z" fill="#D6E6F9"/>
<path d="M580.32 432.45C580.32 432.45 549.32 451.45 542.32 459.45C535.32 467.45 538.32 499.45 542.32 512.45C546.32 525.45 571.32 604.45 571.32 604.45H596.32C596.32 604.45 588.32 555.45 591.32 551.45C594.32 547.45 585.32 476.45 585.32 476.45L580.32 432.45Z" fill="#5F546F"/>
<path d="M698.32 432.45C698.32 432.45 729.32 451.45 736.32 459.45C743.32 467.45 740.32 499.45 736.32 512.45C732.32 525.45 707.32 604.45 707.32 604.45H682.32C682.32 604.45 690.32 555.45 687.32 551.45C684.32 547.45 693.32 476.45 693.32 476.45L698.32 432.45Z" fill="#5F546F"/>
<path opacity="0.1" d="M580.32 432.45C580.32 432.45 549.32 451.45 542.32 459.45C535.32 467.45 538.32 499.45 542.32 512.45C546.32 525.45 571.32 604.45 571.32 604.45H596.32C596.32 604.45 588.32 555.45 591.32 551.45C594.32 547.45 585.32 476.45 585.32 476.45L580.32 432.45Z" fill="black"/>
<path opacity="0.1" d="M698.32 432.45C698.32 432.45 729.32 451.45 736.32 459.45C743.32 467.45 740.32 499.45 736.32 512.45C732.32 525.45 707.32 604.45 707.32 604.45H682.32C682.32 604.45 690.32 555.45 687.32 551.45C684.32 547.45 693.32 476.45 693.32 476.45L698.32 432.45Z" fill="black"/>
<path d="M633.32 179.45C633.32 179.45 633.32 218.45 619.32 238.45C605.32 258.45 683.32 241.45 683.32 241.45C679.769 238.835 677.142 235.157 675.82 230.95C671.7 216.28 670.14 190.44 676.32 179.45C685.32 163.45 633.32 179.45 633.32 179.45Z" fill="#FFCED8"/>
<path opacity="0.1" d="M655.84 205.95C674.065 205.95 688.84 191.175 688.84 172.95C688.84 154.725 674.065 139.95 655.84 139.95C637.615 139.95 622.84 154.725 622.84 172.95C622.84 191.175 637.615 205.95 655.84 205.95Z" fill="black"/>
<path d="M655.84 204.95C674.065 204.95 688.84 190.175 688.84 171.95C688.84 153.725 674.065 138.95 655.84 138.95C637.615 138.95 622.84 153.725 622.84 171.95C622.84 190.175 637.615 204.95 655.84 204.95Z" fill="#FFCED8"/>
<path d="M679.38 512.29C643.61 513.87 584.11 520.53 575.09 510.65C560.54 494.72 565.7 480.38 573.21 471.65C576.15 468.22 578.79 462.48 580.93 456.75C581.65 454.81 582.32 452.88 582.93 451.04C585.24 443.91 592.93 438.99 601.63 438.99H673.86C682.61 438.99 690.31 443.99 692.58 451.12C693.594 454.466 695.147 457.625 697.18 460.47C698.245 461.947 699.484 463.29 700.87 464.47C704.51 467.56 706.87 474.22 708.4 481.55C711.63 497.07 697.95 511.47 679.38 512.29Z" fill="#5F546F"/>
<path opacity="0.1" d="M679.38 512.29C643.61 513.87 584.11 520.53 575.09 510.65C560.54 494.72 565.7 480.38 573.21 471.65C576.15 468.22 578.79 462.48 580.93 456.75C581.65 454.81 582.32 452.88 582.93 451.04C585.24 443.91 592.93 438.99 601.63 438.99H673.86C682.61 438.99 690.31 443.99 692.58 451.12C693.594 454.466 695.147 457.625 697.18 460.47C698.245 461.947 699.484 463.29 700.87 464.47C704.51 467.56 706.87 474.22 708.4 481.55C711.63 497.07 697.95 511.47 679.38 512.29Z" fill="black"/>
<path opacity="0.1" d="M587.09 617.21C583.96 616.58 575.79 614.78 572.62 612.37C572.426 612.229 572.203 612.134 571.967 612.092C571.731 612.049 571.489 612.061 571.258 612.125C571.027 612.19 570.814 612.305 570.634 612.464C570.455 612.622 570.313 612.819 570.22 613.04L565.32 624.45C565.32 624.45 545.32 615.45 544.32 636.45C543.74 648.7 549.96 653.12 555.25 654.68C559.943 655.98 564.369 658.103 568.32 660.95C573.13 664.53 580.46 668.2 588.78 666.22C590.46 665.827 592.185 665.659 593.91 665.72C597.64 665.84 604.07 664.72 603.36 655.43C603.36 655.43 597.36 631.43 599.36 627.43C600.62 624.91 600.29 618.43 599.88 613.97C599.852 613.749 599.758 613.542 599.61 613.376C599.463 613.209 599.269 613.091 599.053 613.036C598.838 612.981 598.611 612.992 598.401 613.067C598.192 613.143 598.011 613.28 597.88 613.46C597.051 614.737 595.904 615.776 594.553 616.478C593.202 617.179 591.691 617.517 590.17 617.46C589.137 617.491 588.104 617.407 587.09 617.21Z" fill="black"/>
<path d="M587.09 618.21C583.96 617.58 575.79 615.78 572.62 613.37C572.426 613.229 572.203 613.134 571.967 613.092C571.731 613.049 571.489 613.061 571.258 613.125C571.027 613.19 570.814 613.305 570.634 613.464C570.455 613.622 570.313 613.819 570.22 614.04L565.32 625.45C565.32 625.45 545.32 616.45 544.32 637.45C543.74 649.7 549.96 654.12 555.25 655.68C559.943 656.98 564.369 659.103 568.32 661.95C573.13 665.53 580.46 669.2 588.78 667.22C590.46 666.827 592.185 666.659 593.91 666.72C597.64 666.84 604.07 665.72 603.36 656.43C603.36 656.43 597.36 632.43 599.36 628.43C600.62 625.91 600.29 619.43 599.88 614.97C599.852 614.749 599.758 614.542 599.61 614.376C599.463 614.209 599.269 614.091 599.053 614.036C598.838 613.981 598.611 613.992 598.401 614.067C598.192 614.143 598.011 614.28 597.88 614.46C597.051 615.737 595.904 616.776 594.553 617.478C593.202 618.179 591.691 618.517 590.17 618.46C589.137 618.491 588.104 618.407 587.09 618.21Z" fill="#BC8387"/>
<path opacity="0.1" d="M691.58 617.21C694.71 616.58 702.88 614.78 706.05 612.37C706.244 612.229 706.467 612.134 706.703 612.092C706.939 612.049 707.181 612.061 707.412 612.125C707.643 612.19 707.856 612.305 708.036 612.464C708.215 612.622 708.357 612.819 708.45 613.04L713.32 624.45C713.32 624.45 733.32 615.45 734.32 636.45C734.9 648.7 728.68 653.12 723.39 654.68C718.72 655.994 714.319 658.123 710.39 660.97C705.58 664.55 698.25 668.22 689.93 666.24C688.25 665.847 686.525 665.679 684.8 665.74C681.07 665.86 674.64 664.74 675.35 655.45C675.35 655.45 681.35 631.45 679.35 627.45C678.09 624.93 678.42 618.45 678.83 613.99C678.858 613.769 678.952 613.562 679.1 613.396C679.247 613.229 679.441 613.11 679.657 613.056C679.872 613.001 680.099 613.012 680.309 613.087C680.518 613.163 680.7 613.3 680.83 613.48C681.659 614.757 682.806 615.796 684.157 616.498C685.509 617.199 687.019 617.537 688.54 617.48C689.56 617.501 690.58 617.411 691.58 617.21Z" fill="black"/>
<path d="M691.58 618.21C694.71 617.58 702.88 615.78 706.05 613.37C706.244 613.229 706.467 613.134 706.703 613.092C706.939 613.049 707.181 613.061 707.412 613.125C707.643 613.19 707.856 613.305 708.036 613.464C708.215 613.622 708.357 613.819 708.45 614.04L713.32 625.45C713.32 625.45 733.32 616.45 734.32 637.45C734.9 649.7 728.68 654.12 723.39 655.68C718.72 656.994 714.319 659.123 710.39 661.97C705.58 665.55 698.25 669.22 689.93 667.24C688.25 666.847 686.525 666.679 684.8 666.74C681.07 666.86 674.64 665.74 675.35 656.45C675.35 656.45 681.35 632.45 679.35 628.45C678.09 625.93 678.42 619.45 678.83 614.99C678.858 614.769 678.952 614.562 679.1 614.396C679.247 614.229 679.441 614.11 679.657 614.056C679.872 614.001 680.099 614.012 680.309 614.087C680.518 614.163 680.7 614.3 680.83 614.48C681.659 615.757 682.806 616.796 684.157 617.498C685.509 618.199 687.019 618.537 688.54 618.48C689.56 618.501 690.58 618.411 691.58 618.21Z" fill="#BC8387"/>
<path d="M512.32 204.45C512.32 204.45 521.32 175.45 497.32 171.45C473.32 167.45 479.32 202.45 497.32 215.45C515.32 228.45 512.32 204.45 512.32 204.45Z" fill="#FFCED8"/>
<path opacity="0.1" d="M698.32 433.45C670.32 479.45 576.32 427.45 576.32 427.45C576.32 427.45 574.09 426.23 572.55 422.25C573.32 419.82 574.03 417.39 574.67 415.08C575.877 410.722 578.482 406.881 582.085 404.147C585.687 401.414 590.088 399.939 594.61 399.95H671.61C676.146 399.94 680.559 401.427 684.165 404.181C687.77 406.935 690.366 410.801 691.55 415.18C692.601 419.312 694.251 423.267 696.45 426.92C697.44 430.95 698.32 433.45 698.32 433.45Z" fill="black"/>
<path d="M635.32 210.45H629.32C629.32 210.45 625.32 228.45 612.32 228.45C608.85 228.45 604.11 228.24 599.01 227.92C583.684 227.116 568.334 228.953 553.63 233.35C548.56 234.82 542.99 234.95 538.32 231.45C526.32 222.45 513.32 198.45 513.32 198.45C513.32 198.45 490.32 197.45 489.32 210.45C488.32 223.45 500.32 247.45 503.32 250.45C506.32 253.45 506.32 272.45 527.32 277.45C548.32 282.45 563.32 284.45 564.32 309.45C565.32 334.45 585.32 360.45 575.32 389.45C565.32 418.45 576.32 424.45 576.32 424.45C576.32 424.45 670.32 476.45 698.32 430.45C698.32 430.45 687.32 399.45 698.32 384.45C709.32 369.45 704.32 332.45 704.32 332.45L740.32 296.45C740.32 296.45 741.32 273.45 726.32 261.45C711.32 249.45 676.32 230.45 676.32 230.45L679.82 215.59L635.32 210.45Z" fill="#D6E6F9"/>
<path opacity="0.1" d="M636.4 182.05C635.64 191.46 635.94 202.2 642.9 208.59C646.32 211.73 650.9 213.3 655.39 214.39C660.118 215.538 664.942 216.251 669.8 216.52C674.24 216.76 678.97 216.52 682.7 214.15C690.34 209.22 690.16 198.26 693.22 189.69C695.38 183.63 699.44 178.46 702.34 172.69C707.62 162.25 708.86 149.42 703.94 138.8C699.02 128.18 687.39 120.56 675.77 121.95C671.997 122.542 668.305 123.573 664.77 125.02C656.35 128.1 649.72 119.39 641.3 122.47C636.7 124.15 618.42 126 617.3 131.47C615.97 137.97 633.66 154.18 635.57 159.87C638.08 167.2 636.4 174.55 636.4 182.05Z" fill="black"/>
<path d="M637.4 181.05C636.64 190.46 636.94 201.2 643.9 207.59C647.32 210.73 651.9 212.3 656.39 213.39C661.118 214.538 665.942 215.251 670.8 215.52C675.24 215.76 679.97 215.52 683.7 213.15C691.34 208.22 691.16 197.26 694.22 188.69C696.38 182.63 700.44 177.46 703.34 171.69C708.62 161.25 709.86 148.42 704.94 137.8C700.02 127.18 688.39 119.56 676.77 120.95C672.997 121.542 669.305 122.573 665.77 124.02C657.35 127.1 650.72 118.39 642.3 121.47C637.7 123.15 619.42 125 618.3 130.47C616.97 136.97 634.66 153.18 636.57 158.87C639.08 166.2 637.4 173.55 637.4 181.05Z" fill="#AE767A"/>
<path opacity="0.1" d="M622.84 223.44C622.84 223.44 628.84 225.95 645.84 230.95C662.84 235.95 675.84 230.95 675.84 230.95" fill="black"/>
<path opacity="0.1" d="M577.82 366.35C577.82 366.35 605.82 367.95 614.82 379.95C623.82 391.95 626.82 395.95 637.82 395.95C648.82 395.95 683.82 397.95 688.82 399.95" fill="black"/>
<path d="M653.2 669.39H636.48V688.5H653.2V669.39Z" fill="#C0BCCF"/>
<path d="M754.72 434.11H741.58V530.85H754.72V434.11Z" fill="#CB919B"/>
<path d="M748.74 529.65H720.08V533.23H748.74V529.65Z" fill="#CB919B"/>
<path d="M549.29 434.11H536.15V530.85H549.29V434.11Z" fill="#CB919B"/>
<path d="M567.2 529.65H538.54V533.23H567.2V529.65Z" fill="#CB919B"/>
<path d="M660.36 535.63H632.89V652.68H660.36V535.63Z" fill="#C0BCCF"/>
<path d="M647.23 493.66C721.23 496.24 723.67 467.89 723.67 467.89L718.89 389.28C717.7 266.85 647.23 284.89 647.23 284.89C647.23 284.89 576.76 266.89 575.57 389.28L570.79 467.89C570.79 467.89 573.18 496.24 647.23 493.66Z" fill="#CB919B"/>
<path opacity="0.1" d="M647.23 493.66C721.23 496.24 723.67 467.89 723.67 467.89L718.89 389.28C717.7 266.85 647.23 284.89 647.23 284.89C647.23 284.89 576.76 266.89 575.57 389.28L570.79 467.89C570.79 467.89 573.18 496.24 647.23 493.66Z" fill="white"/>
<path d="M645.23 488.75C715.81 491.21 718.08 464.18 718.08 464.18L713.53 389.25C712.39 272.56 645.23 289.76 645.23 289.76C645.23 289.76 578.07 272.56 576.93 389.25L572.38 464.18C572.38 464.18 574.65 491.21 645.23 488.75Z" fill="#CB919B"/>
<path d="M647.87 456.8H643.01C636.106 456.8 630.51 462.396 630.51 469.3V495.66C630.51 502.564 636.106 508.16 643.01 508.16H647.87C654.774 508.16 660.37 502.564 660.37 495.66V469.3C660.37 462.396 654.774 456.8 647.87 456.8Z" fill="#C0BCCF"/>
<path opacity="0.1" d="M660.32 648.51V652.68H632.89V648.54L635.28 647.91H657.97L660.32 648.51Z" fill="black"/>
<path d="M534.96 688.5C534.96 688.5 523.01 678.95 635.32 649.09H658.01C658.01 649.09 754.72 672.95 755.91 688.5H741.58C741.58 688.5 689.03 672.95 665.14 672.95C641.25 672.95 569.59 675.34 548.14 688.48L534.96 688.5Z" fill="#C0BCCF"/>
<path d="M539.6 419.77H544.65C548.098 419.77 551.404 421.14 553.842 423.578C556.28 426.016 557.65 429.322 557.65 432.77V438.88H526.6V432.77C526.6 429.322 527.97 426.016 530.408 423.578C532.846 421.14 536.152 419.77 539.6 419.77Z" fill="#CB919B"/>
<path d="M745 419.77H750.05C753.498 419.77 756.804 421.14 759.242 423.578C761.68 426.016 763.05 429.322 763.05 432.77V438.88H732V432.77C732 429.322 733.37 426.016 735.808 423.578C738.246 421.14 741.552 419.77 745 419.77Z" fill="#CB919B"/>
<path d="M540.93 705.22C545.547 705.22 549.29 701.477 549.29 696.86C549.29 692.243 545.547 688.5 540.93 688.5C536.313 688.5 532.57 692.243 532.57 696.86C532.57 701.477 536.313 705.22 540.93 705.22Z" fill="#5A5773"/>
<path d="M644.84 705.22C649.457 705.22 653.2 701.477 653.2 696.86C653.2 692.243 649.457 688.5 644.84 688.5C640.223 688.5 636.48 692.243 636.48 696.86C636.48 701.477 640.223 705.22 644.84 705.22Z" fill="#5A5773"/>
<path d="M749.94 705.22C754.557 705.22 758.3 701.477 758.3 696.86C758.3 692.243 754.557 688.5 749.94 688.5C745.323 688.5 741.58 692.243 741.58 696.86C741.58 701.477 745.323 705.22 749.94 705.22Z" fill="#5A5773"/>
<path opacity="0.1" d="M660.36 535.63H632.89V540.41H660.36V535.63Z" fill="black"/>
<path d="M647.23 538.02H727.23L733.23 526.08C736.81 505.78 723.68 504.58 723.68 504.58H570.79C570.79 504.58 557.65 505.77 561.24 526.08L567.24 538.02H647.23Z" fill="#CB919B"/>
<path opacity="0.1" d="M647.23 538.02H727.23L733.23 526.08C736.81 505.78 723.68 504.58 723.68 504.58H570.79C570.79 504.58 557.65 505.77 561.24 526.08L567.24 538.02H647.23Z" fill="white"/>
<path d="M647.23 538.02H727.23L733.23 527.78C736.81 510.38 723.68 509.35 723.68 509.35H570.79C570.79 509.35 557.65 510.35 561.24 527.78L567.24 538.02H647.23Z" fill="#CB919B"/>
<path d="M808.32 300.42C808.32 300.42 799.19 297.33 794.8 305.42C793.64 307.601 793.05 310.039 793.083 312.509C793.116 314.979 793.772 317.401 794.99 319.55C797.88 324.77 803.82 331.55 815.09 330.94C824.65 330.43 827.82 323.14 828.69 316.35C829.008 313.811 828.671 311.232 827.711 308.86C826.751 306.487 825.2 304.4 823.205 302.796C821.211 301.193 818.839 300.126 816.316 299.698C813.793 299.27 811.202 299.494 808.79 300.35L808.32 300.42Z" fill="#2D527C"/>
<path opacity="0.1" d="M796.94 320.23C795.722 318.081 795.066 315.659 795.033 313.189C795 310.719 795.59 308.281 796.75 306.1C801.14 298.1 810.27 301.1 810.27 301.1L810.74 300.93C814.221 299.67 818.048 299.755 821.47 301.17C819.581 300.044 817.465 299.351 815.276 299.142C813.087 298.933 810.878 299.212 808.81 299.96L808.34 300.13C808.34 300.13 799.21 297.04 794.82 305.13C793.66 307.311 793.07 309.749 793.103 312.219C793.136 314.689 793.792 317.111 795.01 319.26C797.268 323.57 800.895 327.007 805.32 329.03C801.777 326.916 798.879 323.872 796.94 320.23Z" fill="white"/>
<path opacity="0.2" d="M803.62 304.29C803.62 304.29 807 306.95 815.23 304.29H803.62Z" fill="black"/>
<path d="M802.9 284.95C802.9 284.95 808.7 300.67 808.22 304.78L812.81 304.3C812.81 304.3 805.07 290.52 807.01 284.96L802.9 284.95Z" fill="#2D527C"/>
<path opacity="0.2" d="M802.9 284.95C802.9 284.95 808.7 300.67 808.22 304.78L812.81 304.3C812.81 304.3 805.07 290.52 807.01 284.96L802.9 284.95Z" fill="black"/>
<path d="M826.58 286.26C826.58 286.26 817.45 281.59 813.36 285.45C809.27 289.31 808.65 299.17 808.65 299.17C808.65 299.17 823.54 301.22 826.58 286.26Z" fill="#2D527C"/>
<path opacity="0.1" d="M826.58 286.26C826.58 286.26 817.45 281.59 813.36 285.45C809.27 289.31 808.65 299.17 808.65 299.17C808.65 299.17 823.54 301.22 826.58 286.26Z" fill="white"/>
<path d="M808.65 299.17C808.65 299.17 811.05 287.72 826.58 286.26" stroke="#2D527C" stroke-miterlimit="10"/>
</g>
<defs>
<linearGradient id="paint0_linear" x1="433.34" y1="278.95" x2="433.34" y2="186.95" gradientUnits="userSpaceOnUse">
<stop stop-color="#808080" stop-opacity="0.25"/>
<stop offset="0.54" stop-color="#808080" stop-opacity="0.12"/>
<stop offset="1" stop-color="#808080" stop-opacity="0.1"/>
</linearGradient>
<linearGradient id="paint1_linear" x1="188989" y1="403550" x2="188989" y2="95563.2" gradientUnits="userSpaceOnUse">
<stop stop-color="#808080" stop-opacity="0.25"/>
<stop offset="0.54" stop-color="#808080" stop-opacity="0.12"/>
<stop offset="1" stop-color="#808080" stop-opacity="0.1"/>
</linearGradient>
<clipPath id="clip0">
<rect width="1126.64" height="785.89" fill="white"/>
</clipPath>
</defs>
</svg>
